<svg xmlns="http://www.w3.org/2000/svg" width="1em" height="1em" fill="none" viewBox="0 0 28 28" class="w-6 h-6 text-white"><path fill="#fff" d="M14.034 27.834c7.613 0 13.785-6.17 13.785-13.78C27.82 6.442 21.647.272 14.034.272S.248 6.443.248 14.053c0 7.611 6.172 13.78 13.786 13.78"></path><path fill="#000" fill-opacity="0.1" d="M22.806 16.559a8.77 8.77 0 0 0-8.772-8.77c-4.845 0-8.773 3.927-8.773 8.77h2.506a6.265 6.265 0 0 1 6.267-6.264 6.265 6.265 0 0 1 6.266 6.264"></path><path fill="#000" fill-opacity="0.1" d="M14.66 20.568a4.761 4.761 0 1 0-4.762-4.761c0 2.63 2.132 4.76 4.762 4.76"></path><path fill="url(#chrome_svg__a__r_1r_)" d="M14.034 19.19a5.137 5.137 0 1 0-5.139-5.137c0 2.837 2.3 5.136 5.139 5.136"></path><path fill="url(#chrome_svg__b__r_1r_)" d="M26.566 7.79C23.116.85 14.692-1.98 7.75 1.47a14.03 14.03 0 0 0-5.371 4.69l5.64 9.772a6.264 6.264 0 0 1 5.89-8.143"></path><path fill="url(#chrome_svg__c__r_1r_)" d="M2.379 6.16c-4.317 6.438-2.596 15.153 3.843 19.468a14.04 14.04 0 0 0 6.684 2.331l5.89-10.022a6.267 6.267 0 0 1-10.778-2.005"></path><path fill="url(#chrome_svg__d__r_1r_)" d="M12.906 27.96c7.73.584 14.47-5.207 15.054-12.934a14 14 0 0 0-1.394-7.236H13.909a6.265 6.265 0 0 1 4.887 10.147"></path><path fill="url(#chrome_svg__e__r_1r_)" d="m2.379 6.16 5.64 9.772a6.26 6.26 0 0 1 .25-4.26l-5.64-5.887"></path><path fill="url(#chrome_svg__f__r_1r_)" d="m12.906 27.96 5.89-10.023a6.27 6.27 0 0 1-3.635 2.13l-2.506 7.892"></path><path fill="url(#chrome_svg__g__r_1r_)" d="M26.566 7.79H13.908a6.27 6.27 0 0 1 4.888 2.38l8.02-2.005"></path><defs><linearGradient id="chrome_svg__a__r_1r_" x1="14.037" x2="14.037" y1="8.909" y2="19.19" gradientUnits="userSpaceOnUse"><stop stop-color="#81B4E0"></stop><stop offset="1" stop-color="#0C5A94"></stop></linearGradient><linearGradient id="chrome_svg__b__r_1r_" x1="14.472" x2="14.472" y1="0.022" y2="11.422" gradientUnits="userSpaceOnUse"><stop stop-color="#F06B59"></stop><stop offset="1" stop-color="#DF2227"></stop></linearGradient><linearGradient id="chrome_svg__c__r_1r_" x1="3.415" x2="9.177" y1="24.026" y2="14.504" gradientUnits="userSpaceOnUse"><stop stop-color="#388B41"></stop><stop offset="1" stop-color="#4CB749"></stop></linearGradient><linearGradient id="chrome_svg__d__r_1r_" x1="22.727" x2="16.59" y1="25.039" y2="10.255" gradientUnits="userSpaceOnUse"><stop stop-color="#E4B022"></stop><stop offset="0.3" stop-color="#FCD209"></stop></linearGradient><linearGradient id="chrome_svg__e__r_1r_" x1="5.324" x2="5.324" y1="15.557" y2="5.535" gradientUnits="userSpaceOnUse"><stop stop-opacity="0.15"></stop><stop offset="0.3" stop-opacity="0.06"></stop><stop offset="1" stop-opacity="0.03"></stop></linearGradient><linearGradient id="chrome_svg__f__r_1r_" x1="19.162" x2="12.272" y1="18.793" y2="25.811" gradientUnits="userSpaceOnUse"><stop stop-opacity="0.15"></stop><stop offset="0.3" stop-opacity="0.06"></stop><stop offset="1" stop-opacity="0.03"></stop></linearGradient><linearGradient id="chrome_svg__g__r_1r_" x1="19.062" x2="20.064" y1="20.812" y2="10.915" gradientUnits="userSpaceOnUse"><stop stop-opacity="0.15"></stop><stop offset="0.3" stop-opacity="0.06"></stop><stop offset="1" stop-opacity="0.03"></stop></linearGradient></defs></svg>
