<svg xmlns="http://www.w3.org/2000/svg" width="1em" height="1em" fill="none" viewBox="0 0 24 24" class="w-8 h-8 p-2 box-content hover:bg-white hover:shadow-icon rounded-lg text-black"><g clip-path="url(#firefox_svg__a)"><path fill="#F92432" d="M1.923 7.201q.217-.347.494-.649.25-.266.527-.502c.434-.332.878-.653 1.396-.85a.6.6 0 0 1-.017.156 16 16 0 0 0-.51 2.234c-.091.623-.127 1.247-.161 1.877-.018.325.018.648.032.972q.023.513.091 1.02.083.63.22 1.247c.176.791.418 1.566.722 2.317q.354.868.824 1.679.572.985 1.284 1.871.633.76 1.352 1.438.509.492 1.076.916a14.3 14.3 0 0 0 3.858 2.086c.672.24 1.363.427 2.064.558.05.01.122.007.13.087a.3.3 0 0 1-.051.024q-.804.195-1.628.264c-.149.013-.302 0-.445.052h-.258a.7.7 0 0 0-.43 0h-.838a1.1 1.1 0 0 0-.386-.053 9 9 0 0 1-1.193-.182c-.007-.066-.059-.09-.11-.122-.269-.16-.54-.319-.806-.486a15.7 15.7 0 0 1-2.266-1.756 15 15 0 0 1-1.443-1.531 16 16 0 0 1-1.321-1.861 16.067 16.067 0 0 1-1.974-4.914 15 15 0 0 1-.321-2.182c-.013-.185-.006-.372-.028-.556a8.5 8.5 0 0 1-.016-1.316q.029-.783.134-1.56c.012-.091.069-.186-.002-.278"></path><path fill="#FEB202" d="M23.509 10.79q.062.324.08.653c.006.043-.02.099.032.128v1.234c-.02.008-.023.026-.03.043-.054.142-.018.29-.039.436a9.3 9.3 0 0 1-.329 1.515c-.123.385-.232.778-.425 1.137a.3.3 0 0 0-.19.044q-.415.21-.85.373c-.42.138-.85.24-1.278.351a.26.26 0 0 0-.186.136c-.072.132-.126.276-.268.36-.236.144-.512.189-.756.31q-.256.102-.528.154a4.5 4.5 0 0 1-.884.16.67.67 0 0 0-.475.246c-.15.175-.296.378-.575.33q-.168-.03-.337-.055a8.5 8.5 0 0 1-1.932-.527c-.05-.02-.099-.041-.099-.107a7 7 0 0 0 .89-.472 5 5 0 0 0 1.205-1.075l.181-.208a1 1 0 0 0 .176.059q.64.082 1.284.06c.205-.008.236-.039.288-.241q.127-.535.179-1.081a6 6 0 0 0 .006-1.138 8.3 8.3 0 0 0-.247-1.27.5.5 0 0 1 .098.01q.538.198 1.036.48.046.03.098.051c.031.009.072.017.093-.015.022-.031-.006-.055-.018-.079-.088-.158-.18-.314-.267-.472-.154-.275-.362-.513-.53-.777q.143.002.283-.021c.4-.099.79-.23 1.185-.356q.382.4.661.875a.11.11 0 0 0 .069.065.1.1 0 0 0 .093-.014c.246-.113.494-.218.744-.33l1.185-.537c.021.162-.03.33.03.494l-.024.776c-.035.51-.117 1.014-.197 1.52.218-.476.37-.98.449-1.496a1 1 0 0 0 .029-.107l.083-.64z"></path><path fill="#FE3C24" d="M12.487 23.997a.7.7 0 0 1 .43 0z"></path><path fill="#FEE745" d="M23.133 11.225c-.395.178-.79.36-1.185.537-.247.112-.494.217-.744.33a.108.108 0 0 1-.162-.05 4.7 4.7 0 0 0-.66-.876 1 1 0 0 0-.072-.106 14 14 0 0 0-1.32-1.228c-.585-.471-1.197-.91-1.756-1.415a9.3 9.3 0 0 1-1.312-1.43c-.828-1.147-1.06-2.431-.902-3.804a7.6 7.6 0 0 1 .494-1.903 3.7 3.7 0 0 1 .297-.638q.066.17.155.327a6.3 6.3 0 0 0 1.654 1.778c.64.483 1.284.952 1.867 1.508a.16.16 0 0 0 .128.054c.068.032.061.131.137.158q.12.168.285.296a.17.17 0 0 0 .146.144.125.125 0 0 0 .113.116l.029.03a.06.06 0 0 0 .03.059.35.35 0 0 0 .111.117.1.1 0 0 0 .063.086q.098.141.225.257a.1.1 0 0 0 .06.087l.054.058a.17.17 0 0 0 .046.085q.724.93 1.251 1.985c.02.041.032.092.083.11.266.572.478 1.168.633 1.779q.177.662.234 1.346a1 1 0 0 0 .021.099q-.004.053-.003.104"></path><path fill="#0080FC" d="M9.813 2.284a10.7 10.7 0 0 1 4.815.077 6.8 6.8 0 0 0-.474 1.946c-.106 1.378.316 2.602 1.108 3.713q.482.636 1.074 1.168c-.13 0-.254.046-.384.031-.028 0-.06 0-.071.032s.008.055.03.075q.051.05.108.093.196.133.345.319c.26.382.454.806.57 1.255q.101.326.142.667c.009.081-.01.14-.11.142a8 8 0 0 1-1.61-.1 7.1 7.1 0 0 1-3.974-2.172c-.07-.078-.084-.126.02-.198.441-.318.672-.743.62-1.3 0-.047.004-.099.006-.143.012-.22-.02-.27-.231-.348a1.7 1.7 0 0 0-.43-.099 9 9 0 0 0-.946-.116.8.8 0 0 0-.231-.04 1 1 0 0 0-.029-.123 7 7 0 0 1-.325-1.164.52.52 0 0 1 .127-.494.37.37 0 0 0 .074-.347 2 2 0 0 0-.076-.244 3.2 3.2 0 0 1 .493-.425c.025-.02.083-.039.066-.062-.072-.092.024-.077.055-.091.086-.044.175-.078.274-.122a.66.66 0 0 0-.297-.105c-.374-.048-.74.026-1.108.082-.018-.395.083-.771.161-1.151.053-.257.17-.498.208-.756"></path><path fill="#D71358" d="M1.923 7.201c.068.092.014.187 0 .278q-.105.777-.135 1.56-.042.658.017 1.316c.022.184.015.37.028.556q.081 1.102.32 2.182a16.06 16.06 0 0 0 3.298 6.775q.668.815 1.442 1.53c.7.653 1.459 1.24 2.266 1.755.266.168.538.326.808.487.05.031.098.056.11.122a10.3 10.3 0 0 1-2.883-.977c-1.395-.72-2.656-1.628-3.686-2.821-1.44-1.669-2.365-3.583-2.677-5.778a10 10 0 0 1-.099-1.685.2.2 0 0 0-.018-.099q-.18.495-.3 1.006c.048-1.32.218-2.616.676-3.866-.21.254-.343.552-.522.82q.276-1.036.713-2.016.263-.605.642-1.145"></path><path fill="#FDE301" d="M16.336 9.188a8.2 8.2 0 0 1-1.074-1.168c-.79-1.111-1.214-2.335-1.108-3.713.06-.669.22-1.325.474-1.946A9.5 9.5 0 0 1 16.04.043c.065.487.316.854.587 1.206.604.78 1.306 1.467 2.025 2.14a1 1 0 0 0 .149.15c.267.261.564.494.809.775a.16.16 0 0 1-.128-.055c-.579-.555-1.228-1.024-1.867-1.507A6.3 6.3 0 0 1 15.961.974a3 3 0 0 1-.155-.327q-.18.305-.297.638a7.6 7.6 0 0 0-.494 1.903c-.158 1.373.073 2.657.902 3.804.387.521.828 1 1.315 1.43.56.504 1.17.942 1.756 1.414q.701.57 1.32 1.227.04.051.071.107c-.395.127-.783.258-1.185.356a1.6 1.6 0 0 1-.283.02c-.188-.212-.368-.435-.569-.637q-.597-.584-1.254-1.101c-.056-.044-.099-.141-.198-.113 0-.021-.005-.033-.026-.04a6 6 0 0 0-.528-.467"></path><path fill="#D71358" d="M4.336 5.2c-.517.197-.962.517-1.396.85a6 6 0 0 0-.527.502 6.3 6.3 0 0 1 .476-2.411c.099-.244.262-.454.387-.685.034-.063.061-.045.09 0l-.019-.007v.017l.021-.013q.001-.01.013-.008c.067 0 .08.056.099.106.036.093.078.184.115.276a.28.28 0 0 0 .268.172q.256 0 .507.053.185.317.415.605a.4.4 0 0 0 .122.114l.154.164q-.372.108-.725.265"></path><path fill="#154AC6" d="M6.637 3.518a8.5 8.5 0 0 1 1.598-.761c.064.054.034.119.022.183a7.3 7.3 0 0 0-.185 1.588q.008.159-.025.311L7.871 5a.5.5 0 0 0-.084.074c-.056.081-.12.081-.207.05a4.5 4.5 0 0 0-.856-.209L6.58 4.88c-.01-.204.045-.403.03-.608q0-.161.018-.323c.002-.143.055-.287.009-.431"></path><path fill="#045BE0" d="M8.042 4.84q.033-.154.025-.312c.003-.535.065-1.07.185-1.591.012-.064.042-.129-.022-.183a8.4 8.4 0 0 1 1.58-.472c-.038.26-.155.494-.207.755-.078.38-.179.757-.161 1.151q-.327.12-.634.288c-.02.01-.06.024-.064.02-.069-.1-.124-.016-.176.013q-.256.136-.447.351c-.061.081-.056.001-.079-.02"></path><path fill="#2E309F" d="M6.637 3.518c.051.144 0 .288-.01.431a3 3 0 0 0-.017.323c.015.205-.04.404-.03.608-.306 0-.611-.064-.918-.02q-.304.007-.599.076l-.154-.164a9.7 9.7 0 0 1 1.728-1.254"></path><path fill="#FD9101" d="M19.61 4.314c-.245-.285-.541-.514-.81-.775a1 1 0 0 1-.147-.15c.098-.396.223-.776.494-1.11.098.502.383.896.628 1.307q.114.19.23.378c-.073.008-.075.071-.098.123-.054.128-.062.277-.165.385-.066-.027-.066-.126-.132-.158"></path><path fill="#F92432" d="M4.365 4.053A2.6 2.6 0 0 0 3.858 4a.28.28 0 0 1-.268-.172c-.037-.092-.079-.183-.115-.276-.019-.05-.032-.099-.099-.106.133-.317.284-.62.605-.837q-.009.475.112.936.021.069.039.138a.25.25 0 0 0 .143.197c.048.02.063.114.09.173"></path><path fill="#FEB202" d="M19.747 4.472c.099-.108.11-.257.165-.385.022-.052.024-.115.099-.123.35.515.691 1.036 1 1.58-.035.07-.057.152-.147.176l-.053-.057c0-.043 0-.086-.061-.087a1.6 1.6 0 0 1-.226-.257c0-.044 0-.087-.062-.087a.34.34 0 0 1-.11-.113.055.055 0 0 0-.031-.058l-.029-.03a.117.117 0 0 0-.113-.116.165.165 0 0 0-.146-.144 1.5 1.5 0 0 1-.286-.3"></path><path fill="#FDE301" d="M20.861 5.716c.09-.024.112-.106.148-.175q.581.916 1.038 1.9.12.218.197.457c-.051-.02-.063-.07-.083-.111-.35-.702-.77-1.367-1.252-1.986a.17.17 0 0 1-.048-.085"></path><path fill="#FD9101" d="M23.133 11.225v-.1l.349-.442a.15.15 0 0 1 .029.11q-.002.49-.007.983l-.341-.059c-.062-.162-.012-.33-.03-.492"></path><path fill="#FE3C24" d="M5.056 4.936q.296-.068.599-.076a.5.5 0 0 1-.017.112c-.146.367-.264.744-.373 1.125A13.7 13.7 0 0 0 4.77 9.5c-.006.197.017.4.022.598a12.893 12.893 0 0 0 .47 3.077c.016.057.016.133.104.17.056-.625.198-1.204.609-1.687a2.2 2.2 0 0 1 .582-.424c.137-.062.278-.113.419-.17l.487-.06a.19.19 0 0 1-.065.165 1 1 0 0 0-.208.27c-.099.226-.236.434-.358.649-.11.173-.183.367-.212.57a1.4 1.4 0 0 1-.109.504 4.2 4.2 0 0 0-.42 1.962c.004.16-.01.331.064.478q.308.611.684 1.185a13.1 13.1 0 0 0 2.182 2.558q.663.599 1.397 1.108c.691.477 1.428.884 2.2 1.216.906.39 1.852.68 2.821.863a.22.22 0 0 1 .178.119l-.296.106q.6.03 1.197-.051.516-.067 1.005-.249c.122-.047.225-.141.362-.151a1.3 1.3 0 0 1-.323.319c-.659.52-1.422.813-2.222 1.031a.2.2 0 0 1-.042 0c-.008-.08-.08-.077-.13-.087a13.6 13.6 0 0 1-2.064-.558 14.3 14.3 0 0 1-3.858-2.086 11 11 0 0 1-1.076-.916q-.719-.678-1.351-1.438A15 15 0 0 1 5.534 16.7a14 14 0 0 1-.824-1.68 15 15 0 0 1-.723-2.316q-.135-.619-.219-1.246-.068-.508-.09-1.02c-.015-.325-.051-.648-.033-.973.034-.626.07-1.25.162-1.877a16 16 0 0 1 .51-2.234.6.6 0 0 0 .016-.156q.353-.154.722-.262"></path><path fill="#FD9101" d="M22.132 17.853c-.041.364-.155.717-.335 1.036a3.3 3.3 0 0 1-.331.529c-.03.04-.052.092-.109.108-.19-.015-.364.062-.544.099-.562.119-1.125.231-1.695.303-.172.022-.355.029-.48.181l-.373.45a.21.21 0 0 1-.186.085c-.1-.006-.191 0-.287 0a5.3 5.3 0 0 1-1.081-.063c-.21-.04-.421-.07-.63-.107a10.7 10.7 0 0 1-1.754-.45q-.892-.335-1.724-.797a11 11 0 0 1-1.769-1.201c-.064-.052-.144-.1-.155-.198q.613.18 1.249.252.608.053 1.214-.033a6.4 6.4 0 0 0 1.299-.336c0 .066.05.088.098.107.621.252 1.27.43 1.932.529q.17.025.337.054c.282.049.425-.154.575-.329a.67.67 0 0 1 .475-.247q.451-.035.884-.159a3 3 0 0 0 .528-.154c.244-.122.52-.166.757-.31.14-.084.197-.228.267-.36a.26.26 0 0 1 .186-.136c.428-.11.858-.213 1.277-.35q.435-.165.85-.374a.3.3 0 0 1 .192-.044q-.239.52-.52 1.018c-.046.082-.098.16-.147.242l-.374.575q-.648.884-1.403 1.68a.2.2 0 0 0 .098-.023 4.6 4.6 0 0 0 1.07-.728c.228-.196.407-.444.523-.723z"></path><path fill="#4A1575" d="M14.44 17.71q-.63.235-1.296.332-.605.088-1.214.034a7.3 7.3 0 0 1-1.248-.252c-.198-.076-.403-.143-.593-.229a3.86 3.86 0 0 1-1.757-1.532.3.3 0 0 1 .07.007q.62.2 1.27.247c.241.03.486.024.725-.017a2.95 2.95 0 0 0 1.357-.362q.135-.056.254-.143l.511-.265c.092.098.224.086.342.116.032.008.072.008.078.047.006.04-.038.052-.066.062a3 3 0 0 0-.547.304c-.031.018-.08.028-.078.075s.055.062.092.077q.54.208 1.1.352.903.233 1.828.344a.26.26 0 0 0 .198-.052c.2-.148.373-.328.514-.532.16-.226.345-.21.561-.16a5 5 0 0 1-1.212 1.076 7 7 0 0 1-.889.472"></path><path fill="#2E309F" d="M16.535 16.164c-.217-.05-.402-.067-.562.159-.141.204-.315.384-.514.532a.27.27 0 0 1-.198.052 14 14 0 0 1-1.828-.344 10 10 0 0 1-1.1-.352c-.037-.015-.09-.024-.091-.077-.003-.053.046-.057.077-.075q.257-.18.547-.304c.029-.01.073-.018.066-.062-.007-.043-.045-.039-.078-.047-.118-.03-.25-.015-.342-.117.357-.204.71-.38 1.153-.265.296.076.51-.198.432-.494a1.1 1.1 0 0 0-.198-.327q.173-.007.338.044a9.7 9.7 0 0 0 2.46.274c.1 0 .127-.038.155-.125.079-.25.134-.506.197-.761.015-.062.042-.12.105-.116.184.011.355-.08.538-.059q-.053.356-.17.697a5.4 5.4 0 0 1-.81 1.56z"></path><path fill="#FDE301" d="M16.712 15.956c.353-.473.626-1 .81-1.56q.116-.341.17-.697a5.3 5.3 0 0 0-.018-2.07l-.005-.056a6.1 6.1 0 0 0-.514-1.457c.079.016.11.084.154.139.483.627.85 1.335 1.087 2.09q.173.627.248 1.271.05.57-.007 1.138a8 8 0 0 1-.18 1.08c-.05.203-.082.234-.287.242a8 8 0 0 1-1.284-.06 1 1 0 0 1-.174-.06"></path><path fill="#FD9101" d="M18.4 12.345a6.7 6.7 0 0 0-1.086-2.091c-.043-.055-.075-.123-.154-.139.007-.03 0-.052-.035-.058h.006l-.027-.039-.21-.329c.1-.028.143.069.198.113q.657.517 1.254 1.101c.198.198.38.425.57.638.167.264.375.502.529.777q.133.236.267.472c.012.024.037.054.018.08-.018.025-.062.023-.093.014a.5.5 0 0 1-.098-.05 7 7 0 0 0-1.036-.48.5.5 0 0 0-.102-.01"></path><path fill="#FE6C0F" d="M23.39 12.519a5.7 5.7 0 0 1-.447 1.492c.076-.505.158-1.01.197-1.52z"></path><path fill="#ED7922" d="m23.39 12.519-.254-.028.025-.777.34.059-.082.639a1 1 0 0 1-.029.107"></path><path fill="#FE5618" d="M15.618 22.652a.22.22 0 0 0-.178-.119 13.4 13.4 0 0 1-2.821-.863 12.7 12.7 0 0 1-2.2-1.216 14 14 0 0 1-1.397-1.108 13.1 13.1 0 0 1-2.182-2.558q-.376-.574-.684-1.185c-.074-.147-.06-.319-.065-.477a4.2 4.2 0 0 1 .421-1.963q.102-.242.109-.504a1.4 1.4 0 0 1 .212-.57c.122-.215.256-.423.358-.65a1 1 0 0 1 .208-.269.19.19 0 0 0 .065-.166q.221-.012.442 0c.099.011.215-.013.302.07a.73.73 0 0 0-.419.367 1.26 1.26 0 0 0-.006 1.185.5.5 0 0 1-.033.094 5.5 5.5 0 0 0-.711 1.976.38.38 0 0 0 .147.4c.301.221.654.36 1.024.407l.389.136c.033.012.092.02.041.071-.115.113.037.093.058.099.146.043.297.075.457.113a.15.15 0 0 1-.149.037q-.296-.024-.592-.054-.155.01-.307-.022c-.04-.016-.062.008-.067.049a2.5 2.5 0 0 1-.506-.261c-.04-.025-.087-.074-.127-.04s.017.082.03.124a12.057 12.057 0 0 0 1.427 1.94q.672.744 1.45 1.377.697.559 1.473 1.004a11.9 11.9 0 0 0 4.12 1.475q.52.09 1.046.122a.27.27 0 0 0 .197-.06c.13-.111.259-.225.395-.332.117-.1.26-.162.413-.18.5-.048 1-.092 1.499-.17.098-.014.203-.073.304 0a9 9 0 0 1-1.052.6q-.164.081-.327.17-.032-.002-.039.028a.16.16 0 0 0-.099.018 17 17 0 0 1-1.26.5q-.67.247-1.366.405"></path><path fill="#FE6C0F" d="M19.758 20.933c-.099-.074-.209-.015-.304 0-.494.077-1 .121-1.499.169a.78.78 0 0 0-.413.18c-.133.107-.262.22-.395.331a.28.28 0 0 1-.197.06q-.526-.03-1.047-.12a11.928 11.928 0 0 1-4.12-1.475 11.5 11.5 0 0 1-1.473-1.005 13 13 0 0 1-1.449-1.377 12 12 0 0 1-1.427-1.94c-.013-.042-.077-.085-.03-.125.048-.04.087.016.127.04q.238.161.506.261.15.052.286.13a3.86 3.86 0 0 0 1.757 1.533c.198.086.395.153.593.23.01.098.09.144.155.197q.827.686 1.77 1.2.832.463 1.723.798c.57.2 1.157.35 1.753.45.21.036.421.068.63.107q.538.088 1.082.063h.287a.21.21 0 0 0 .186-.085l.373-.45c.125-.152.308-.159.48-.18a21 21 0 0 0 1.695-.304c.18-.038.355-.115.544-.099 0 .063-.054.099-.09.14-.432.5-.94.928-1.503 1.27"></path><path fill="#D71358" d="M15.618 22.652q.696-.158 1.366-.403.641-.226 1.26-.501a.16.16 0 0 1 .1-.018 1.7 1.7 0 0 1-.396.518l-.038.03-.031.03c-.137.01-.24.105-.363.152q-.486.18-1.001.247a6.5 6.5 0 0 1-1.197.051z"></path><path fill="#FE3C24" d="m22.132 17.853-.084.123c-.113-.044-.172-.164-.29-.197l.374-.575c.085.183.056.372.015.56a.4.4 0 0 0-.015.089"></path><path fill="#D71358" d="M18.34 21.73c0-.02.02-.028.039-.029z"></path><path fill="#FE3C24" d="m17.882 22.307.03-.03q.002.03-.03.03"></path><path fill="#FDE301" d="M20.032 4.77a.166.166 0 0 1 .146.143.17.17 0 0 1-.146-.144m.146.142a.12.12 0 0 1 .113.116.124.124 0 0 1-.113-.116m.57.66c.06 0 .062.044.062.087a.1.1 0 0 1-.061-.087m-.282-.343c.06 0 .062.042.062.086a.1.1 0 0 1-.062-.087m-.146-.172a.06.06 0 0 1 .03.058.06.06 0 0 1-.03-.058"></path><path fill="#045BE0" d="m16.893 9.691.21.33c0 .017.006.035.027.038h-.006c0 .025.006.05.035.058.232.462.404.952.514 1.457l.006.056c-.161.038-.322.082-.485.112q-.11.02-.078.099.028.14.027.283.064.577 0 1.154a.1.1 0 0 1-.07.096.1.1 0 0 1-.042.003c-.241-.008-.48.022-.724.01a10 10 0 0 1-1.533-.177 8.5 8.5 0 0 1-2.585-1.003 8 8 0 0 1-1.26-.907 11 11 0 0 1-1.005-1.015c-.051-.06-.055-.107.027-.16.174-.11.353-.208.532-.306.142-.077.146-.15.013-.24a.18.18 0 0 1-.106-.184l.204-.11c.17-.068.335-.154.505-.223.165-.056.316-.148.441-.268a1.47 1.47 0 0 0 .481-.756c.053.557-.177.982-.619 1.3-.104.075-.09.123-.02.197a7.1 7.1 0 0 0 3.974 2.174q.8.13 1.61.098c.098 0 .119-.06.11-.14a4 4 0 0 0-.142-.669 4 4 0 0 0-.57-1.254 1.6 1.6 0 0 0-.345-.32 1 1 0 0 1-.108-.092c-.021-.02-.041-.044-.03-.075.01-.032.043-.036.07-.032.131.015.256-.03.385-.031q.28.213.534.46l.025.04z"></path><path fill="#FD9101" d="M8.208 11.072c-.087-.084-.197-.06-.302-.07a4 4 0 0 0-.442 0l-.487.06a4 4 0 0 1-.08-.748c-.023-.848-.017-1.694.137-2.534a12 12 0 0 1 .62-2.192c.076-.197.198-.37.213-.593l.175-.16c.023.022.018.1.082.024q.192-.216.447-.35c.052-.03.108-.117.176-.014 0 0 .044-.01.064-.02q.306-.167.634-.288c.368-.056.734-.13 1.108-.082.106.01.208.047.297.105-.099.044-.188.078-.274.122-.03.014-.127 0-.055.091.018.023-.04.043-.065.062a3 3 0 0 0-.494.425c-.266.248-.49.536-.663.855q-.156.242-.226.521a1 1 0 0 0-.037.076 4.9 4.9 0 0 0-.28 1.917c.009.29.067.576.172.846q.195.446.435.868c-.008.059.115.144-.034.177l.01.065q.016.074.028.152c.037.277.013.56-.07.827-.088.093-.125-.08-.21-.036.035.099.147.182.103.328-.23-.257-.528-.363-.842-.512l.055.129-.029.024zm.854.09.01-.009-.01-.008-.01.013z"></path><path fill="#FE6C0F" d="M9.362 9.997a9 9 0 0 1-.435-.868 2.6 2.6 0 0 1-.172-.846 4.9 4.9 0 0 1 .28-1.918 1 1 0 0 1 .037-.075q.107.297.29.554c.21.27.473.443.828.445a.8.8 0 0 1 .231.04q-.01.307.035.611c.034.449.09.895.138 1.342l-.204.11c-.367.163-.735.32-1.028.605"></path><path fill="#FD9101" d="M10.594 9.282c-.047-.447-.104-.89-.138-1.342a3.5 3.5 0 0 1-.035-.611q.477.031.946.116.003.32.062.634.019.361.111.712a1.2 1.2 0 0 1-.441.268c-.17.07-.334.155-.505.223"></path><path fill="#045BE0" d="M10.193 7.29c-.355 0-.617-.177-.829-.446a2.3 2.3 0 0 1-.29-.554q.07-.278.227-.521c.173-.319.397-.607.663-.855q.045.12.076.244a.37.37 0 0 1-.074.347.52.52 0 0 0-.127.494q.114.596.325 1.164a1 1 0 0 1 .029.126"></path><path fill="#FEB202" d="M11.54 8.79q-.092-.349-.111-.71a3.6 3.6 0 0 1-.062-.635q.222.021.43.099c.211.078.243.127.231.348q-.002.074-.007.143a1.47 1.47 0 0 1-.48.756"></path><path fill="#FD9101" d="m16.895 9.689-.026-.04q.032.007.026.04"></path><path fill="#FEFEFE" d="m3.365 3.454-.02.013V3.45l.018.007z"></path><path fill="#FE5618" d="M5.973 11.658c-.407.483-.553 1.062-.609 1.687-.087-.037-.087-.113-.103-.17a13 13 0 0 1-.47-3.077c-.006-.197-.03-.395-.023-.598.021-1.15.187-2.294.494-3.403.11-.38.227-.758.373-1.125a.5.5 0 0 0 .017-.112c.307-.044.612.02.919.02l.143.034q-.015.063-.036.124c-.29.702-.513 1.43-.667 2.173a12 12 0 0 0-.244 2.075q-.033.937.09 1.867c.029.167.006.352.116.505"></path><path fill="#FE6C0F" d="M5.973 11.658c-.11-.153-.087-.338-.112-.508a11 11 0 0 1-.089-1.867q.03-1.049.243-2.075c.154-.744.378-1.471.668-2.173q.021-.06.036-.124.438.062.856.209c.088.031.151.031.207-.05a.5.5 0 0 1 .084-.074c-.01.218-.136.396-.212.593a12 12 0 0 0-.622 2.188c-.154.84-.16 1.686-.138 2.534q.005.377.08.749c-.14.056-.281.107-.418.17a2.2 2.2 0 0 0-.583.428"></path><path fill="#F92432" d="M21.758 17.77c.118.038.177.158.29.198a1.9 1.9 0 0 1-.524.724c-.32.291-.68.536-1.069.727a.2.2 0 0 1-.099.022q.754-.79 1.402-1.67"></path><path fill="#FEB202" d="M13.9 14.44q.127.148.198.328c.078.296-.139.572-.432.494-.444-.116-.796.061-1.153.265l-.511.266c-.043-.08-.124-.077-.198-.093-.526-.11-1.043-.226-1.345-.746-.162-.278-.383-.521-.494-.828.304.006.608-.036.899-.127a7.3 7.3 0 0 1 1.14-.288 2.25 2.25 0 0 1 1.896.73"></path><path fill="#FD9101" d="M9.962 14.128c.114.307.335.55.494.828.302.52.82.636 1.345.746.072.016.153.013.197.093a1.3 1.3 0 0 1-.253.143c-.142-.108-.316-.088-.476-.115a22 22 0 0 0-1.167-.173c-.344-.042-.684-.117-1.031-.119 0-.052-.046-.052-.077-.069-.198-.098-.41-.153-.576-.308-.243-.226-.337-.537-.483-.818a.24.24 0 0 1-.007-.168 3.5 3.5 0 0 1 .235-.657.3.3 0 0 0 .028-.256.35.35 0 0 1-.035-.166c.247.17.407.449.7.565q.105.048.205.11c-.032.018-.104.021-.018.07.283.16.595.26.919.294"></path><path fill="#ED7922" d="M9.072 15.531c.347 0 .691.077 1.031.119q.586.07 1.167.173c.16.027.335.007.476.115a2.95 2.95 0 0 1-1.356.362c-.006-.055-.048-.047-.085-.051-.165-.021-.33-.039-.494-.065q-.593-.093-1.186-.197c-.07-.013-.166.014-.208-.081.197.019.395.04.592.054a.15.15 0 0 0 .149-.037c-.16-.038-.31-.07-.457-.113-.021-.007-.173.013-.058-.099.051-.05-.008-.059-.041-.07l-.389-.137c-.005-.162.094-.126.193-.105q.33.067.666.132m.224.428a.1.1 0 0 0-.038-.02c-.02 0-.034.011-.026.032.008.02.021.014.032.013s.018-.014.032-.025"></path><path fill="#FE3C24" d="M8.415 15.906c.042.099.137.068.208.08.395.072.79.135 1.186.198.163.026.328.044.493.065.038.005.08 0 .086.051q-.361.062-.725.017a5.4 5.4 0 0 1-1.27-.247.3.3 0 0 0-.07-.007 1.5 1.5 0 0 0-.286-.13c.005-.041.026-.065.067-.049q.153.032.31.022"></path><path fill="#154AC6" d="M13.9 14.44a2.25 2.25 0 0 0-1.9-.727c-.007-.099-.09-.119-.155-.15a8 8 0 0 1-.763-.452 11 11 0 0 1-1.568-1.252.5.5 0 0 1-.11-.165c-.02-.042 0-.082.037-.058.085.058.087-.007.11-.056a.113.113 0 0 0-.048-.165c-.08-.053-.184-.086-.21-.197a1.9 1.9 0 0 0 .07-.827c-.007-.052-.019-.099-.029-.152a1 1 0 0 1-.01-.066c.15-.032.027-.117.035-.176.297-.285.661-.445 1.028-.605a.18.18 0 0 0 .106.184c.133.09.129.163-.013.24-.18.099-.358.197-.532.306-.082.053-.078.099-.027.16q.472.54 1.006 1.015.584.516 1.26.907a8.5 8.5 0 0 0 2.587 1.006q.756.152 1.525.183c.244.01.483-.019.724-.011a.098.098 0 0 0 .112-.099q.064-.576 0-1.154 0-.143-.027-.283-.03-.087.078-.099c.163-.03.324-.074.485-.111.142.682.147 1.385.016 2.069-.183-.02-.354.07-.538.06-.063 0-.09.053-.105.115-.06.255-.116.51-.197.76-.028.088-.06.125-.154.126a9.6 9.6 0 0 1-2.45-.28 1 1 0 0 0-.343-.045"></path><path fill="#FDE301" d="M17.159 10.113c-.029-.009-.032-.033-.035-.058.034.006.042.028.035.058"></path><path fill="#FDE301" d="M17.13 10.059c-.021 0-.024-.02-.027-.039z"></path><path fill="#2E309F" d="M9.296 11.218c.026.112.13.145.21.197a.113.113 0 0 1 .048.165c-.023.049-.025.114-.11.056-.036-.024-.056.016-.037.058a.5.5 0 0 0 .11.165 11 11 0 0 0 1.565 1.252q.369.246.76.45c.066.032.148.056.156.15a7.3 7.3 0 0 0-1.137.29c-.291.09-.595.132-.9.126a2.4 2.4 0 0 1-.917-.297c-.086-.048-.014-.051.018-.07a2 2 0 0 0-.205-.11c-.296-.115-.453-.395-.7-.564l-.03-.033a4 4 0 0 1-.344-.434 1.26 1.26 0 0 1 .006-1.185.73.73 0 0 1 .42-.366l.164.079.034.01v-.034l-.055-.129c.314.149.611.255.842.512.044-.146-.068-.227-.104-.328.081-.042.115.132.206.04"></path><path fill="#FE6C0F" d="M7.783 12.625q.157.228.343.434l.031.033a.35.35 0 0 0 .036.165.3.3 0 0 1-.03.257q-.15.317-.234.657a.24.24 0 0 0 .007.168c.146.28.24.593.483.818.167.155.383.207.576.308.031.017.077.017.077.07-.224-.045-.447-.087-.669-.134-.099-.02-.198-.057-.193.105a2.2 2.2 0 0 1-1.024-.406.38.38 0 0 1-.147-.401c.108-.698.35-1.369.711-1.976a.5.5 0 0 0 .033-.098"></path><path fill="#2E309F" d="M9.062 11.162h-.009l.009-.014.01.01z"></path><path fill="#FE5618" d="M9.296 15.96c-.014.01-.022.023-.032.024-.01 0-.03-.005-.032-.013s.007-.033.026-.033a.1.1 0 0 1 .038.021"></path><path fill="#FD9101" d="M8.402 11.127v.034l-.034-.01z"></path></g><defs><clipPath id="firefox_svg__a__r_a_"><path fill="#fff" d="M0 0h24v24H0z"></path></clipPath></defs></svg>
