<svg xmlns="http://www.w3.org/2000/svg" width="1em" height="1em" fill="none" viewBox="0 0 24 24" class="w-8 h-8 p-2 box-content hover:bg-white hover:shadow-icon rounded-lg text-black"><g clip-path="url(#Zip_svg__a)"><path fill="#5ACC9B" d="M22.717 22.743H1.195C.538 22.743 0 22.285 0 21.728v-6.159h23.907v6.156c0 .557-.538 1.015-1.195 1.015z"></path><path fill="#6CCBFF" d="M1.195 1.221h21.522c.656 0 1.195.459 1.195 1.015v6.16H.005V2.24c0-.557.538-1.016 1.194-1.016z"></path><path fill="#FFD766" d="M.005 8.397h23.903v7.17H.005z"></path><path fill="#FF5562" d="M7.972 1.226h7.968v21.513H7.972z"></path><path fill="#fff" d="M10.262 2.42h1.594v1.197h-1.594zm1.594-1.194h1.594V2.42h-1.594zm0 2.39h1.594v1.192h-1.594zm-1.594 1.192h1.594v1.195h-1.594zm1.594 1.195h1.594v1.196h-1.594zm-1.594 1.196h1.594v1.196h-1.594zm1.594 1.194h1.594v1.195h-1.594zm-1.594 1.195h1.594v1.196h-1.594zm1.594 1.196h1.594v1.198h-1.594zm-1.594 1.198h1.594v1.195h-1.594zm1.594 1.195h1.594v1.196h-1.594zm-1.594 1.196h1.594v1.196h-1.594zm1.594 1.195h1.594v1.194h-1.594zm-1.594 1.194h1.594v1.196h-1.594zm1.594 1.196h1.594v1.198h-1.594zm-1.594 1.198h1.594v1.195h-1.594zm0 2.39h1.594v1.197h-1.594zm1.594-1.195h1.594v1.196h-1.594z"></path></g><defs><clipPath id="Zip_svg__a__r_d_"><path fill="#fff" d="M0 0h24v24H0z"></path></clipPath></defs></svg>
