<?xml version="1.0" standalone="no"?><!DOCTYPE svg PUBLIC "-//W3C//DTD SVG 1.1//EN" "http://www.w3.org/Graphics/SVG/1.1/DTD/svg11.dtd"><svg t="1781598696649" class="icon" viewBox="0 0 1024 1024" version="1.1" xmlns="http://www.w3.org/2000/svg" p-id="2428" xmlns:xlink="http://www.w3.org/1999/xlink" width="200" height="200"><path d="M618.154667 311.466667c0-145.28-70.869333-270.293333-124.757334-310.954667-0.213333-0.128-4.096-2.304-3.754666 3.498667l-0.085334 0.213333c-4.48 280.533333-147.882667 356.565333-226.688 459.050667-181.973333 236.373333-12.8 495.616 159.530667 543.488 96.426667 26.794667-22.272-47.445333-37.546667-204.202667-18.474667-189.525333 233.301333-334.165333 233.301334-491.093333z" fill="#1D2140" p-id="2429"></path><path d="M700.757333 407.04c-1.066667-0.768-2.645333-1.28-3.712 0.512-2.986667 35.328-39.082667 110.933333-84.821333 180.224-155.178667 235.349333-66.730667 348.757333-17.066667 409.685333 28.928 35.413333 0 0 72.234667-36.138666 5.632-2.816 140.8-78.592 155.434667-251.178667 14.122667-167.168-86.272-272.469333-122.026667-303.104z" fill="#54A9DB" p-id="2430"></path></svg>